<svg xmlns="http://www.w3.org/2000/svg" width="85.02" height="89" viewBox="0 0 85.02 89">
  <g id="icone_connexion" transform="translate(-477.49 -380)">
    <circle id="Ellipse_1" data-name="Ellipse 1" cx="11.5" cy="11.5" r="11.5" transform="translate(509 400)" fill="#fff"/>
    <path id="Soustraction_2" data-name="Soustraction 2" d="M24.613,17a8.41,8.41,0,0,1-.874-.046c3.475-.449,6.1-4.084,6.1-8.455S27.215.495,23.739.046A8.411,8.411,0,0,1,24.613,0a8.239,8.239,0,0,1,3.265.668A8.354,8.354,0,0,1,30.544,2.49a8.6,8.6,0,0,1,1.8,9.319,8.479,8.479,0,0,1-1.8,2.7,8.354,8.354,0,0,1-2.666,1.822A8.239,8.239,0,0,1,24.613,17Z" transform="matrix(0.891, 0.454, -0.454, 0.891, 525.566, 379.547)" fill="#fff"/>
    <path id="Polygone_11" data-name="Polygone 11" d="M12,0l.9,11.1L24,12l-11.1.9L12,24l-.9-11.1L0,12l11.1-.9Z" transform="translate(481 380)" fill="#fff"/>
    <ellipse id="Ellipse_2" data-name="Ellipse 2" cx="23" cy="21" rx="23" ry="21" transform="translate(497 427)" fill="#fff"/>
    <path id="Soustraction_9" data-name="Soustraction 9" d="M42,15a177.769,177.769,0,0,1-29.7-2.2C4.369,11.386,0,9.5,0,7.5S4.369,3.613,12.3,2.2A177.8,177.8,0,0,1,42,0,177.8,177.8,0,0,1,71.7,2.2C79.631,3.613,84,5.5,84,7.5s-4.369,3.886-12.3,5.3A177.769,177.769,0,0,1,42,15ZM42,.938C23.769.938,8.936,3.04,8.936,5.625S23.769,10.312,42,10.312s33.064-2.1,33.064-4.687S60.231.938,42,.938Z" transform="matrix(0.966, -0.259, 0.259, 0.966, 477.49, 453.126)" fill="#fff"/>
  </g>
</svg>
