<svg xmlns="http://www.w3.org/2000/svg" viewBox="0 0 94.03 50"><defs><style>.f1512638-c70d-4cf1-a6d4-dc6dc7723104{fill:#F9F3AA;}</style></defs><g id="ec103557-bdbf-431d-8e52-b5705c0dfa60" data-name="Calque 2"><g id="f8d4477a-02dd-4bc7-847c-5cfd41b6bda4" data-name="Calque 1"><path class="f1512638-c70d-4cf1-a6d4-dc6dc7723104" d="M50.05,7.33,48,9a.51.51,0,0,1-.75-.1l-4.52-6a.57.57,0,0,1,.09-.78l2-1.63a.52.52,0,0,1,.75.09l4.52,6A.57.57,0,0,1,50.05,7.33Z"/><path class="f1512638-c70d-4cf1-a6d4-dc6dc7723104" d="M49.53,2.13C48.32.53,46.75-.3,46,.28l4.38,5.8C51.13,5.5,50.73,3.73,49.53,2.13Z"/><path class="f1512638-c70d-4cf1-a6d4-dc6dc7723104" d="M7.08,26.31a.87.87,0,0,1,1.24.14.93.93,0,0,1-.18,1.27L5.81,29.59a.62.62,0,0,1-.17.11L5.2,27.81Z"/><polygon class="f1512638-c70d-4cf1-a6d4-dc6dc7723104" points="8.22 30.78 9.13 30.05 7.83 28.32 6.92 29.05 8.22 30.78"/><path class="f1512638-c70d-4cf1-a6d4-dc6dc7723104" d="M20.33,20.15,41.07,3.52a1.13,1.13,0,0,1,1.63.21l3.75,5a1.22,1.22,0,0,1-.2,1.69L25.51,27a1.21,1.21,0,0,1-1.73-.23l-3.66-4.84A1.3,1.3,0,0,1,20.33,20.15Z"/><path class="f1512638-c70d-4cf1-a6d4-dc6dc7723104" d="M5,33.51,18.55,22.6a1,1,0,0,1,1.48.2l2.85,3.78a1.1,1.1,0,0,1-.18,1.52L9.11,39a1,1,0,0,1-1.39-.19L4.79,34.94A1,1,0,0,1,5,33.51Z"/><path class="f1512638-c70d-4cf1-a6d4-dc6dc7723104" d="M4.81,35.74,7,38.61a.41.41,0,0,1-.07.56L6,39.93a.4.4,0,0,1-.55-.07L3.25,37a.41.41,0,0,1,.07-.56l.94-.76A.39.39,0,0,1,4.81,35.74Z"/><path class="f1512638-c70d-4cf1-a6d4-dc6dc7723104" d="M4.2,39.49l-2,1.64a.39.39,0,0,1-.55-.07l-.47-.6a.41.41,0,0,1,.06-.56l2-1.64a.38.38,0,0,1,.55.07l.47.59A.42.42,0,0,1,4.2,39.49Z"/><path class="f1512638-c70d-4cf1-a6d4-dc6dc7723104" d="M1.28,38l1.58,2a.41.41,0,0,1,0,.56l-.58.48A.39.39,0,0,1,1.68,41L.09,39a.41.41,0,0,1,.06-.57l.57-.48A.39.39,0,0,1,1.28,38Z"/><path class="f1512638-c70d-4cf1-a6d4-dc6dc7723104" d="M17.16,49.79h0a2.81,2.81,0,0,1-2.75-2.87l0-44A2.81,2.81,0,0,1,17.19.09h0A2.82,2.82,0,0,1,19.94,3l0,44A2.82,2.82,0,0,1,17.16,49.79Z"/><path class="f1512638-c70d-4cf1-a6d4-dc6dc7723104" d="M42.71,49.91a2.75,2.75,0,0,1-2.19-1.09L21.76,24a2.75,2.75,0,1,1,4.39-3.32L44.91,45.49a2.77,2.77,0,0,1-.54,3.86A2.72,2.72,0,0,1,42.71,49.91Z"/><path class="f1512638-c70d-4cf1-a6d4-dc6dc7723104" d="M54.14,50a2.85,2.85,0,0,1-2.64-4L70,2a2.85,2.85,0,0,1,5.26,2.2l-18.45,44A2.86,2.86,0,0,1,54.14,50Z"/><path class="f1512638-c70d-4cf1-a6d4-dc6dc7723104" d="M86,37.67H59.42a2.86,2.86,0,1,1,0-5.71H86a2.86,2.86,0,0,1,0,5.71Z"/><path class="f1512638-c70d-4cf1-a6d4-dc6dc7723104" d="M91.18,49.71A2.85,2.85,0,0,1,88.54,48L70.09,4a2.86,2.86,0,0,1,5.27-2.21l18.45,44a2.85,2.85,0,0,1-2.63,4Z"/></g></g></svg>