<svg xmlns="http://www.w3.org/2000/svg" width="71.969" height="74" viewBox="0 0 71.969 74">
  <g id="logo_connexion" transform="translate(-1685 -26)">
    <circle id="Ellipse_1" data-name="Ellipse 1" cx="11.5" cy="11.5" r="11.5" transform="translate(1709 42)" fill="#fff"/>
    <path id="Soustraction_1" data-name="Soustraction 1" d="M56,29H0A29.708,29.708,0,0,1,2.2,17.712a28.983,28.983,0,0,1,6-9.218,27.875,27.875,0,0,1,8.9-6.215,27.2,27.2,0,0,1,21.8,0,27.875,27.875,0,0,1,8.9,6.215,28.983,28.983,0,0,1,6,9.218A29.709,29.709,0,0,1,56,29Z" transform="translate(1692 71)" fill="#fff"/>
    <path id="Polygone_2" data-name="Polygone 2" d="M7.5,0,9.375,5.578,15,5.729l-4.466,3.6L12.135,15,7.5,11.646,2.865,15l1.6-5.672L0,5.729l5.625-.151Z" transform="translate(1685 26)" fill="#fff"/>
    <path id="Soustraction_2" data-name="Soustraction 2" d="M24.613,17a8.41,8.41,0,0,1-.874-.046c3.475-.449,6.1-4.084,6.1-8.455S27.215.495,23.739.046A8.411,8.411,0,0,1,24.613,0a8.239,8.239,0,0,1,3.265.668A8.354,8.354,0,0,1,30.544,2.49a8.6,8.6,0,0,1,1.8,9.319,8.479,8.479,0,0,1-1.8,2.7,8.354,8.354,0,0,1-2.666,1.822A8.239,8.239,0,0,1,24.613,17Z" transform="matrix(0.891, 0.454, -0.454, 0.891, 1727.566, 26.469)" fill="#fff"/>
  </g>
</svg>
